<svg width="2048" height="2048" viewBox="0 0 2048 2048" fill="none" xmlns="http://www.w3.org/2000/svg">
<path d="M638.2 1601.2H666.2L526.9 1096.6C574.4 1086.9 610.2 1044.9 610.2 994.5H385.1C385.1 1045.2 421.4 1087.5 469.4 1096.8L295.1 1601.2H323.7L497.3 1098.7H499.5L638.2 1601.2Z" fill="#153460"/>
<path d="M1686 1601.2H1714L1574.7 1096.6C1622.2 1086.9 1658 1044.9 1658 994.5H1432.8C1432.8 1045.2 1469.1 1087.5 1517.1 1096.8L1342.8 1601.2H1371.4L1545 1098.7H1547.2L1686 1601.2Z" fill="#153460"/>
<path d="M1752.9 901.1H297.6V1028.2H1752.9V901.1Z" fill="#F28504"/>
<path d="M1752.9 996.1H297.6V1028.3H1752.9V996.1Z" fill="#C06800"/>
<path d="M1042.1 792.4H941.5V918H1042.1V792.4Z" fill="#C3CFDD"/>
<path d="M1174.5 843.7H809.1C793.2 843.7 780.4 830.8 780.4 815V587.5C780.4 571.6 793.3 558.8 809.1 558.8H1174.5C1190.4 558.8 1203.2 571.7 1203.2 587.5V815C1203.2 830.8 1190.4 843.7 1174.5 843.7Z" fill="#DFF1FF"/>
<path d="M1203.2 800H780.4V543.8C780.4 527.9 793.3 515.1 809.1 515.1H1174.5C1190.4 515.1 1203.2 528 1203.2 543.8V800Z" fill="#153460"/>
<path d="M1178.1 786.3H805.5C800.8 786.3 796.9 782.5 796.9 777.7V537.5C796.9 532.8 800.7 528.9 805.5 528.9H1178.1C1182.8 528.9 1186.7 532.7 1186.7 537.5V777.7C1186.7 782.4 1182.8 786.3 1178.1 786.3Z" fill="#F9F5E9"/>
<path d="M1083.4 901.1H900.3V921.8H1083.4V901.1Z" fill="#E0EEFB"/>
<path d="M1144.8 578.8H983.6V723.9H1144.8V578.8Z" fill="#FFFDFE"/>
<path d="M997.799 705.6V591.8H1131.1V670.1L1112.5 638.8L1096.1 678.6L1067.7 620.3L997.799 705.6Z" fill="#81B1FB"/>
<path d="M997.399 710.9H1074.7L1032 626.5L997.399 710.9Z" fill="#1F487C"/>
<path d="M937.3 595.5H830.8C828.3 595.5 826.2 593.4 826.2 590.9C826.2 588.4 828.3 586.3 830.8 586.3H937.3C939.8 586.3 941.9 588.4 941.9 590.9C941.9 593.5 939.8 595.5 937.3 595.5Z" fill="#81B1FB"/>
<path d="M937.3 626.9H830.8C828.3 626.9 826.2 624.8 826.2 622.3C826.2 619.8 828.3 617.7 830.8 617.7H937.3C939.8 617.7 941.9 619.8 941.9 622.3C941.9 624.9 939.8 626.9 937.3 626.9Z" fill="#81B1FB"/>
<path d="M937.3 658.3H830.8C828.3 658.3 826.2 656.2 826.2 653.7C826.2 651.2 828.3 649.1 830.8 649.1H937.3C939.8 649.1 941.9 651.2 941.9 653.7C941.9 656.3 939.8 658.3 937.3 658.3Z" fill="#81B1FB"/>
<path d="M937.3 689.7H830.8C828.3 689.7 826.2 687.6 826.2 685.1C826.2 682.6 828.3 680.5 830.8 680.5H937.3C939.8 680.5 941.9 682.6 941.9 685.1C941.9 687.7 939.8 689.7 937.3 689.7Z" fill="#81B1FB"/>
<path d="M1152.5 977.7H725.1L745.8 919.5L1123.8 920.7L1152.5 977.7Z" fill="#FEFEFE"/>
<path d="M1152.5 977.7H725.1V986.9H1152.5V977.7Z" fill="#B8CCD5"/>
<path d="M1265.7 949.4C1264.2 963.2 1240.4 968.6 1225.9 965.1C1225.8 965.1 1225.7 965.1 1225.6 965C1210.8 961.2 1169.6 935.2 1169.6 935.2C1168 924.8 1176 917.8 1178.9 915.6C1179.5 915.1 1179.9 914.9 1179.9 914.9C1235.9 890.4 1267.3 935.6 1265.7 949.4Z" fill="#E0F0FF"/>
<path d="M1225.6 965C1210.8 961.2 1169.6 935.2 1169.6 935.2C1168 924.8 1176 917.8 1178.9 915.6C1190.6 915.7 1206 919.3 1213.6 935C1221.6 951.6 1224.5 960.5 1225.6 965Z" fill="#C2D0DD"/>
<path d="M1614.32 750.146L1602.27 752.027L1616.59 843.812L1628.65 841.931L1614.32 750.146Z" fill="#FD9687"/>
<path d="M1610.85 719.109L1596.23 721.391L1604.65 775.336L1619.27 773.054L1610.85 719.109Z" fill="#1F4880"/>
<path d="M1659.93 752.376L1646.87 748.241L1618.83 836.812L1631.9 840.946L1659.93 752.376Z" fill="#81B1FB"/>
<path d="M1670.68 723.106L1654.95 718.126L1638.47 770.182L1654.2 775.161L1670.68 723.106Z" fill="#153460"/>
<path d="M1687.91 755.584L1674.84 751.45L1646.81 840.021L1659.87 844.155L1687.91 755.584Z" fill="#FE9B1C"/>
<path d="M1698.68 726.219L1682.95 721.24L1666.47 773.295L1682.2 778.275L1698.68 726.219Z" fill="#432B5B"/>
<path d="M1689.3 785V887.1C1689.3 903.8 1675.7 917.4 1659 917.4H1611.2C1594.5 917.4 1580.9 903.8 1580.9 887.1V785H1689.3Z" fill="#285CA7"/>
<path d="M1689.3 785V887.1C1689.3 903.8 1675.7 917.4 1659 917.4H1617.4C1659.7 908.9 1653.2 864.6 1653.2 864.6V785H1689.3Z" fill="#153460"/>
<path d="M1425.2 692H1308V916H1425.2V692Z" fill="#EFC859"/>
<path d="M1328.9 692H1308V916H1328.9V692Z" fill="#FDD969"/>
<path d="M1501.8 744.9H1384.6V916.1H1501.8V744.9Z" fill="#FDD969"/>
<path d="M1405.5 744.9H1384.6V916.1H1405.5V744.9Z" fill="#FCE092"/>
<path d="M1567.3 707H1431.7V916.1H1567.3V707Z" fill="#FDD969"/>
<path d="M1455.8 707H1431.7V916.1H1455.8V707Z" fill="#FCE092"/>
<path d="M681.4 789.6C695.9 750.7 704.2 689 704.2 689C665.2 690.2 641.9 728.1 628.6 763.4C618.9 721.2 599.3 672.6 560.2 671C560.2 671 569.8 748.2 585.7 793.6C542.4 767.7 487.1 770.1 487.1 770.1C492.2 801.9 578.8 832.3 578.8 832.3C579.2 832.3 598.2 832.3 611.4 832.3C627.6 847.1 633.2 849.7 633.2 849.7L634.9 839.9C638.1 838 642 835.5 646.6 832.3C659.8 832.3 680.7 832.3 681.1 832.3C681.1 832.3 767.7 801.9 772.8 770.1C772.9 770 723.4 767.9 681.4 789.6Z" fill="#44BBC3"/>
<path d="M658 813.8C665.9 792.6 670.4 759.1 670.4 759.1C649.2 759.7 636.5 780.4 629.3 799.6C624 776.6 613.4 750.2 592.1 749.3C592.1 749.3 597.4 791.3 606 816C582.4 801.9 552.3 803.2 552.3 803.2C555.1 820.5 602.2 837.1 602.2 837.1C602.4 837.1 612.8 837.1 619.9 837.1C628.7 845.2 631.8 846.5 631.8 846.5L632.7 841.2C634.4 840.2 636.6 838.8 639.1 837.1C646.3 837.1 657.6 837.1 657.9 837.1C657.9 837.1 705.1 820.6 707.8 803.2C707.8 803.2 680.8 802 658 813.8Z" fill="#096E76"/>
<path d="M681.2 832.2V909.3C681.2 921.9 668.4 932.2 652.6 932.2H607.4C591.6 932.2 578.8 922 578.8 909.3V832.2H681.2Z" fill="#F5D230"/>
<path d="M681.2 832.2V909.3C681.2 921.9 668.4 932.2 652.6 932.2H613.3C653.3 925.8 647.1 892.3 647.1 892.3V832.2H681.2Z" fill="#EFC859"/>
<path d="M426.1 907.6L434.4 904L322.1 656.5L345.2 612.4L508 471.7L501.9 465L337.8 606.8L311.9 656.2L312.8 658.1L426.1 907.6Z" fill="#1F487C"/>
<path d="M449.4 908.7L457.8 905.2L353.2 670.4L357.6 630L516.2 489.9L510 483.3L348.8 625.7L343.9 671.8L449.4 908.7Z" fill="#1F487C"/>
<path d="M334.5 679.2C355.156 679.2 371.9 662.858 371.9 642.7C371.9 622.542 355.156 606.2 334.5 606.2C313.845 606.2 297.1 622.542 297.1 642.7C297.1 662.858 313.845 679.2 334.5 679.2Z" fill="#F9F5E9"/>
<path d="M334.5 664.3C346.761 664.3 356.7 654.629 356.7 642.7C356.7 630.771 346.761 621.1 334.5 621.1C322.24 621.1 312.3 630.771 312.3 642.7C312.3 654.629 322.24 664.3 334.5 664.3Z" fill="#1F487C"/>
<path d="M505.9 445.7L501.9 448.7C488.7 458.3 486 476.5 495.7 489.5L503.8 500.3C503.8 500.3 457.1 572.1 500.3 634.7L680 519.6C680 519.6 631 456.9 558.6 464.9L547.5 451.1C537.5 438.6 519 436.2 505.9 445.7Z" fill="#F9F5E9"/>
<path d="M680 519.6C680 519.6 626.3 613 500.2 634.7C500.3 634.7 533 541.3 680 519.6Z" fill="#FDD969"/>
<path d="M401.1 932H617V913.1C617 904.6 610.1 897.8 601.7 897.8H416.4C407.9 897.8 401.1 904.7 401.1 913.1V932Z" fill="#E0EEFB"/>
<path d="M988.2 1188.4C988.2 1188.4 1019.2 1235.5 1054.8 1243.5C1090.4 1251.5 1260.5 1233.2 1260.5 1233.2L1158.4 1226.9L988.2 1188.4Z" fill="#096E76"/>
<path d="M1268.5 1211.4H1209.1V1412.8H1268.5V1211.4Z" fill="#153460"/>
<path d="M1253 1281.1H1224.5V1564.5H1253V1281.1Z" fill="#153460"/>
<path d="M1351.4 1577.9H1126.2C1126.2 1567.1 1134.9 1558.4 1145.7 1558.4H1331.8C1342.7 1558.3 1351.4 1567.1 1351.4 1577.9Z" fill="#153460"/>
<path d="M1147.4 1608.2C1159.83 1608.2 1169.9 1598.13 1169.9 1585.7C1169.9 1573.27 1159.83 1563.2 1147.4 1563.2C1134.97 1563.2 1124.9 1573.27 1124.9 1585.7C1124.9 1598.13 1134.97 1608.2 1147.4 1608.2Z" fill="#153460"/>
<path d="M1147.4 1598.7C1154.58 1598.7 1160.4 1592.88 1160.4 1585.7C1160.4 1578.52 1154.58 1572.7 1147.4 1572.7C1140.22 1572.7 1134.4 1578.52 1134.4 1585.7C1134.4 1592.88 1140.22 1598.7 1147.4 1598.7Z" fill="#44BBC3"/>
<path d="M1330.5 1608.2C1342.93 1608.2 1353 1598.13 1353 1585.7C1353 1573.27 1342.93 1563.2 1330.5 1563.2C1318.07 1563.2 1308 1573.27 1308 1585.7C1308 1598.13 1318.07 1608.2 1330.5 1608.2Z" fill="#153460"/>
<path d="M1330.5 1598.7C1337.68 1598.7 1343.5 1592.88 1343.5 1585.7C1343.5 1578.52 1337.68 1572.7 1330.5 1572.7C1323.32 1572.7 1317.5 1578.52 1317.5 1585.7C1317.5 1592.88 1323.32 1598.7 1330.5 1598.7Z" fill="#44BBC3"/>
<path d="M1237.6 1608.2C1250.03 1608.2 1260.1 1598.13 1260.1 1585.7C1260.1 1573.27 1250.03 1563.2 1237.6 1563.2C1225.17 1563.2 1215.1 1573.27 1215.1 1585.7C1215.1 1598.13 1225.17 1608.2 1237.6 1608.2Z" fill="#153460"/>
<path d="M1237.6 1598.7C1244.78 1598.7 1250.6 1592.88 1250.6 1585.7C1250.6 1578.52 1244.78 1572.7 1237.6 1572.7C1230.42 1572.7 1224.6 1578.52 1224.6 1585.7C1224.6 1592.88 1230.42 1598.7 1237.6 1598.7Z" fill="#44BBC3"/>
<path d="M1094.8 1215.3C1094.8 1215.3 931.1 1195.2 1009.9 1177.1C1088.7 1159.1 1233.1 1167.3 1233.1 1167.3L1094.8 1215.3Z" fill="#153460"/>
<path d="M1456.6 867V1142.7C1456.6 1142.7 1403 1261.5 1158.7 1227C1138.7 1224.2 1117.4 1220.3 1094.8 1215.3C1094.8 1215.3 1181 1189.5 1209.2 1119.3L1301.5 879.3C1301.6 879.3 1382.8 825.2 1456.6 867Z" fill="#44BBC3"/>
<path d="M1148.1 1234.4C1128.1 1231.6 1117.4 1220.3 1094.8 1215.3C1094.8 1215.3 1181 1189.5 1209.2 1119.3L1301.5 879.3C1301.6 879.3 1353.5 1191.3 1148.1 1234.4Z" fill="#096E76"/>
<path d="M1259 1094.2H1010.8C996.8 1094.2 985.5 1082.9 985.5 1068.9C985.5 1054.9 996.8 1043.6 1010.8 1043.6H1259C1273 1043.6 1284.3 1054.9 1284.3 1068.9C1284.3 1082.9 1273 1094.2 1259 1094.2Z" fill="#153460"/>
<path d="M596.8 981.2H425.1L433.4 937.7L585.3 938.6L596.8 981.2Z" fill="#F5D230"/>
<path d="M560.8 986.2H389.1L397.4 942.7L549.3 943.6L560.8 986.2Z" fill="#FEFEFE"/>
</svg>
