<svg width="620" height="514" viewBox="0 0 620 514" fill="none" xmlns="http://www.w3.org/2000/svg">
<path d="M597.152 0.00821759C584.574 0.00821759 574.299 10.2827 574.299 22.8613V30.1271L43.7545 156.775C40.2143 148.626 32.2382 142.961 22.8531 142.961C10.2742 142.961 0 153.235 0 165.814V336.567C0 349.146 10.2745 359.42 22.8531 359.42C32.2441 359.42 40.3935 353.749 43.7545 345.606L88.0403 356.233V411.145C88.0403 445.867 112.66 476.333 146.672 483.599L280.945 512.117C286.079 513.18 291.219 513.711 296.533 513.711C313.363 513.711 329.66 508.04 343.123 497.24C360.663 483.067 370.579 462.166 370.579 439.672V423.732L574.294 472.448V476.519C574.294 489.098 584.568 499.372 597.147 499.372C609.726 499.372 620 489.098 620 476.519V23.0318C620 10.2737 609.726 0 597.147 0L597.152 0.00821759ZM325.063 439.498C325.063 448.179 321.165 456.148 314.436 461.641C307.702 467.134 299.028 469.08 290.699 467.313L156.426 438.794C143.316 435.958 133.93 424.269 133.93 410.98V367.046L325.245 412.748L325.239 439.5L325.063 439.498Z" fill="black"/>
</svg>
