<svg width="620" height="387" viewBox="0 0 620 387" fill="none" xmlns="http://www.w3.org/2000/svg">
<path d="M353.491 0.0391231C347.599 0.317876 341.957 2.47107 337.381 6.19097C332.81 9.91087 329.552 15.0007 328.081 20.7105L238.509 351.434C235.933 360.974 238.644 371.158 245.612 378.161C252.586 385.164 262.765 387.913 272.31 385.375C281.86 382.837 289.334 375.398 291.91 365.858L381.482 35.1345V35.1393C383.928 26.5701 382.083 17.347 376.527 10.3782C370.971 3.40922 362.388 -0.440474 353.491 0.0402308L353.491 0.0391231ZM192.867 34.4895C186.652 34.5952 180.659 36.7964 175.858 40.7326L10.4965 171.644L10.4917 171.649C3.8689 176.873 0 184.847 0 193.286C0 201.725 3.8689 209.699 10.4917 214.928L175.853 345.839H175.858C181.549 350.819 189.032 353.246 196.563 352.544C204.094 351.842 211.005 348.079 215.677 342.134C220.353 336.189 222.376 328.58 221.281 321.102C220.185 313.619 216.061 306.915 209.876 302.56L71.8528 193.393L209.876 84.016C216.08 79.3108 220.007 72.1977 220.68 64.4408C221.353 56.6837 218.714 49.0034 213.418 43.2982C208.117 37.5885 200.653 34.3924 192.867 34.4934L192.867 34.4895ZM426.489 34.4895C418.775 34.5712 411.45 37.8826 406.294 43.6115C401.132 49.3453 398.614 56.977 399.34 64.6533C400.07 72.3335 403.977 79.355 410.124 84.0119L548.147 193.389L410.124 302.556C403.939 306.911 399.815 313.615 398.72 321.098C397.624 328.576 399.647 336.185 404.323 342.13C408.995 348.075 415.906 351.838 423.437 352.54C430.968 353.242 438.451 350.814 444.142 345.835L609.503 214.924H609.508C616.131 209.695 620 201.722 620 193.282C620 184.842 616.131 176.869 609.508 171.645L444.147 40.7333L444.142 40.7285C439.168 36.6529 432.92 34.4421 426.489 34.4854L426.489 34.4895Z" fill="black"/>
</svg>
