<svg width="620" height="620" viewBox="0 0 620 620" fill="none" xmlns="http://www.w3.org/2000/svg">
<path d="M22.391 289.333H597.609C609.974 289.333 620 300.746 620 310C620 321.413 609.974 330.667 597.609 330.667H22.391C10.0259 330.667 0 319.254 0 310C0 298.587 10.0259 289.333 22.391 289.333Z" fill="black"/>
<path d="M313.474 233.533C297.57 233.446 282.911 225.58 274.959 212.867L179.797 62C171.82 49.2493 171.795 33.5461 179.732 20.773C187.664 8.0045 202.358 0.0873905 218.311 0H408.404C424.353 0.0876491 439.052 8.00367 446.983 20.773C454.92 33.5461 454.89 49.2493 446.918 62L351.977 212.867C344.03 225.581 329.371 233.446 313.467 233.533H313.474ZM408.185 41.3333H218.31L313.471 192.413L408.185 41.3333Z" fill="black"/>
<path d="M408.411 620H218.318C202.364 619.912 187.671 611.996 179.739 599.227C171.803 586.454 171.828 570.751 179.804 558L274.966 406.106C283.033 393.558 297.672 385.863 313.481 385.863C329.29 385.863 343.924 393.558 351.991 406.106L446.933 558C454.904 570.751 454.934 586.454 446.998 599.227C439.066 611.996 424.366 619.913 408.419 620H408.411ZM313.025 427.186L218.537 578.667H408.413L313.025 427.186Z" fill="black"/>
<path d="M332.282 202.746L427.444 50.8518C430.977 44.5688 430.782 37.0488 426.919 30.9327C423.06 24.8111 416.078 20.9453 408.411 20.6777H218.318C210.516 20.8715 203.394 24.8019 199.506 31.0433C195.622 37.2895 195.537 44.9467 199.286 51.2624L294.448 203.156C298.626 209.098 305.813 212.65 313.49 212.567C321.167 212.484 328.259 208.775 332.287 202.746L332.282 202.746Z" fill="black"/>
<path d="M332.282 417.254L427.444 569.149C430.977 575.432 430.782 582.952 426.919 589.068C423.06 595.189 416.078 599.055 408.411 599.323H218.318C210.516 599.129 203.394 595.198 199.506 588.957C195.622 582.711 195.537 575.054 199.286 568.738L294.448 416.844C298.626 410.902 305.813 407.35 313.49 407.433C321.167 407.516 328.259 411.225 332.287 417.254L332.282 417.254Z" fill="black"/>
</svg>
