<svg width="620" height="620" viewBox="0 0 620 620" fill="none" xmlns="http://www.w3.org/2000/svg">
<path d="M13.9314 620H195.056C198.749 620 202.291 618.481 204.905 615.776C207.52 613.07 208.987 609.405 208.987 605.583V14.4214C208.987 10.5995 207.52 6.93357 204.905 4.22803C202.291 1.52249 198.749 0.00390625 195.056 0.00390625H13.9314C6.23422 0.00390625 0 6.46085 0 14.4212V605.582C0 609.404 1.46752 613.07 4.08176 615.776C6.69126 618.481 10.2382 620 13.9314 620ZM119.121 310.001L181.122 107.42V512.582L119.121 310.001ZM176.248 591.163H32.7417L104.495 357.582L176.248 591.163ZM104.495 262.42L32.7417 28.839H176.248L104.495 262.42ZM89.8629 310.002L27.8628 512.583V107.421L89.8629 310.002Z" fill="black"/>
<path d="M606.068 273.954H285.618C277.926 273.954 271.687 280.411 271.687 288.372V605.58C271.687 609.402 273.154 613.068 275.768 615.774C278.383 618.479 281.925 619.998 285.618 619.998H606.069C609.762 619.998 613.309 618.479 615.918 615.774C618.533 613.068 620 609.402 620 605.58V288.372C620 284.55 618.533 280.879 615.918 278.178C613.309 275.473 609.761 273.954 606.068 273.954ZM425.641 446.977L299.551 571.702V322.26L425.641 446.977ZM320.447 302.791H571.234L445.841 426.791L320.447 302.791ZM445.841 467.163L571.234 591.163H320.447L445.841 467.163ZM466.045 446.977L592.136 322.258V571.699L466.045 446.977Z" fill="black"/>
<path d="M606.068 0.00026028H285.618C277.925 0.00026028 271.686 6.4572 271.686 14.4175V187.44C271.686 191.262 273.154 194.933 275.768 197.634C278.382 200.339 281.925 201.858 285.618 201.858H606.068C609.761 201.858 613.309 200.339 615.918 197.634C618.533 194.933 620 191.262 620 187.44V14.4175C620 10.5956 618.532 6.92967 615.918 4.22413C613.309 1.51858 609.761 0.00026028 606.068 0.00026028ZM415.888 100.933L299.55 163.652V38.2095L415.888 100.933ZM342.74 28.84H548.943L445.843 84.3476L342.74 28.84ZM445.84 117.513L548.941 173.026H342.738L445.84 117.513ZM475.798 100.933L592.135 38.2133V163.652L475.798 100.933Z" fill="black"/>
</svg>
